<?xml version="1.0" encoding="UTF-8" standalone="no"?>
<!-- Created with Inkscape (http://www.inkscape.org/) -->

<svg
   version="1.1"
   id="svg1"
   width="108"
   height="108"
   viewBox="-8 -8 124 124"
   sodipodi:docname="ic_launcher_foreground.svg"
   inkscape:version="1.3.2 (091e20ef0f, 2023-11-25)"
   xmlns:inkscape="http://www.inkscape.org/namespaces/inkscape"
   xmlns:sodipodi="http://sodipodi.sourceforge.net/DTD/sodipodi-0.dtd"
   xmlns="http://www.w3.org/2000/svg"
   xmlns:svg="http://www.w3.org/2000/svg">
  <defs
     id="defs1" />
  <sodipodi:namedview
     id="namedview1"
     pagecolor="#ffffff"
     bordercolor="#666666"
     borderopacity="1.0"
     inkscape:showpageshadow="2"
     inkscape:pageopacity="0.0"
     inkscape:pagecheckerboard="0"
     inkscape:deskcolor="#d1d1d1"
     inkscape:zoom="5.6568542"
     inkscape:cx="32.173359"
     inkscape:cy="57.275649"
     inkscape:window-width="1920"
     inkscape:window-height="1004"
     inkscape:window-x="0"
     inkscape:window-y="0"
     inkscape:window-maximized="1"
     inkscape:current-layer="g1" />
  <g
     inkscape:groupmode="layer"
     inkscape:label="Image"
     id="g1">
    <rect
       style="fill:none;fill-opacity:1;stroke:#000000;stroke-width:0.210688;stroke-dasharray:none;stroke-opacity:1"
       id="rect23"
       width="107.78931"
       height="107.78931"
       x="0.10534412"
       y="0.10534412"
       ry="0.10052798" />
    <rect
       style="fill:#313031;fill-opacity:1;stroke-width:0.13241"
       id="rect1-5"
       width="27.749664"
       height="6.3561311"
       x="21.235346"
       y="24.514158"
       ry="2.0944493" />
    <rect
       style="fill:#313031;fill-opacity:1;stroke-width:0.13241"
       id="rect1-5-5"
       width="27.749664"
       height="6.3561311"
       x="59.014996"
       y="24.514158"
       ry="2.0944493" />
    <rect
       style="fill:#313031;fill-opacity:1;stroke-width:0.13241"
       id="rect1-5-5-9"
       width="27.749664"
       height="6.3561311"
       x="21.235346"
       y="56.626896"
       ry="2.0944493" />
    <rect
       style="fill:#313031;fill-opacity:1;stroke-width:0.13241"
       id="rect1-5-5-9-0"
       width="27.749664"
       height="6.3561311"
       x="59.014996"
       y="56.626896"
       ry="2.0944493" />
    <path
       d="m 28.602971,28.619385 q 0,0.641884 -0.477538,0.982979 -0.474437,0.337997 -1.395399,0.337997 -0.840341,0 -1.317874,-0.297682 -0.477538,-0.297687 -0.613977,-0.902359 l 0.883752,-0.145741 q 0.08993,0.3473 0.350401,0.505444 0.260473,0.155044 0.722506,0.155044 0.958173,0 0.958173,-0.582969 0,-0.18605 -0.111631,-0.306985 -0.10853,-0.120934 -0.310089,-0.201557 -0.198456,-0.08063 -0.76592,-0.195356 -0.489938,-0.114733 -0.682194,-0.182954 -0.192254,-0.07132 -0.3473,-0.164346 -0.155044,-0.09613 -0.263573,-0.229466 -0.108532,-0.133337 -0.17055,-0.313188 -0.05892,-0.179851 -0.05892,-0.412416 0,-0.592273 0.443427,-0.905461 0.446529,-0.316292 1.296169,-0.316292 0.812433,0 1.218651,0.254274 0.409314,0.254274 0.52715,0.840339 l -0.886854,0.120938 q -0.06822,-0.282182 -0.27908,-0.424825 -0.20776,-0.142639 -0.59847,-0.142639 -0.831037,0 -0.831037,0.520947 0,0.17055 0.08682,0.279079 0.08993,0.108533 0.263574,0.186056 0.17365,0.07442 0.703901,0.189154 0.629479,0.133338 0.899257,0.248069 0.272877,0.111635 0.431024,0.263577 0.158145,0.148843 0.24187,0.359702 0.08372,0.20776 0.08372,0.480637 z"
       id="text7"
       style="font-weight:bold;font-size:20px;line-height:125%;font-family:Sans;-inkscape-font-specification:'Sans Bold';letter-spacing:0px;word-spacing:0px;fill:#b67e74;stroke-width:0.31753px"
       aria-label="S" />
    <path
       d="m 33.524076,27.673617 q 0,0.682193 -0.269778,1.20004 -0.269776,0.51785 -0.772121,0.793827 -0.502344,0.272877 -1.172134,0.272877 -1.029495,0 -1.615561,-0.604671 -0.582965,-0.607775 -0.582965,-1.662073 0,-1.051202 0.582965,-1.640371 0.582965,-0.589169 1.621761,-0.589169 1.038797,0 1.621765,0.595372 0.586068,0.595369 0.586068,1.634168 z m -0.933369,0 q 0,-0.707004 -0.334894,-1.107017 -0.334894,-0.403113 -0.93957,-0.403113 -0.613974,0 -0.94887,0.400011 -0.334896,0.396915 -0.334896,1.110119 0,0.719406 0.341096,1.134924 0.3442,0.412417 0.93647,0.412417 0.613973,0 0.94577,-0.403115 0.334894,-0.403117 0.334894,-1.144226 z"
       id="text6"
       style="font-weight:bold;font-size:20px;line-height:125%;font-family:Sans;-inkscape-font-specification:'Sans Bold';letter-spacing:0px;word-spacing:0px;fill:#b67e74;stroke-width:0.31753px"
       aria-label="O" />
    <path
       d="m 34.215573,29.878344 v -4.369147 h 0.91476 v 3.662146 h 2.344269 v 0.707001 z"
       id="text5"
       style="font-weight:bold;font-size:20px;line-height:125%;font-family:Sans;-inkscape-font-specification:'Sans Bold';letter-spacing:0px;word-spacing:0px;fill:#b67e74;stroke-width:0.31753px"
       aria-label="L" />
    <path
       d="m 39.784762,29.878344 h -0.927165 l -1.615563,-4.369147 h 0.955074 l 0.899257,2.806301 q 0.08372,0.272879 0.229467,0.824835 l 0.06511,-0.266676 0.158147,-0.558159 0.896156,-2.806301 h 0.945769 z"
       id="text4"
       style="font-weight:bold;font-size:20px;line-height:125%;font-family:Sans;-inkscape-font-specification:'Sans Bold';letter-spacing:0px;word-spacing:0px;fill:#b67e74;stroke-width:0.31753px"
       aria-label="V" />
    <path
       d="m 41.859253,29.878344 v -4.369147 h 3.43578 V 26.2162 h -2.521017 v 1.097713 h 2.331864 v 0.707002 h -2.331864 v 1.150428 h 2.648156 v 0.707001 z"
       id="text3"
       style="font-weight:bold;font-size:20px;line-height:125%;font-family:Sans;-inkscape-font-specification:'Sans Bold';letter-spacing:0px;word-spacing:0px;fill:#b67e74;stroke-width:0.31753px"
       aria-label="E" />
    <path
       d="m 68.263304,26.89219 q 0,0.421723 -0.192255,0.753518 -0.192256,0.331794 -0.551959,0.514746 -0.356601,0.179853 -0.84964,0.179853 h -1.085311 v 1.538037 h -0.914762 v -4.369147 h 1.962861 q 0.784522,0 1.206245,0.362805 0.424821,0.359703 0.424821,1.020188 z m -0.920963,0.01551 q 0,-0.688393 -0.812434,-0.688393 h -0.945768 v 1.417101 h 0.970578 q 0.378308,0 0.582966,-0.186049 0.204658,-0.189154 0.204658,-0.542659 z"
       id="text11"
       style="font-weight:bold;font-size:20px;line-height:125%;font-family:Sans;-inkscape-font-specification:'Sans Bold';letter-spacing:0px;word-spacing:0px;fill:#b67e74;stroke-width:0.31753px"
       aria-label="P" />
    <path
       d="m 68.905187,29.878344 v -4.369147 h 0.91476 v 3.662146 h 2.344272 v 0.707001 z"
       id="text10"
       style="font-weight:bold;font-size:20px;line-height:125%;font-family:Sans;-inkscape-font-specification:'Sans Bold';letter-spacing:0px;word-spacing:0px;fill:#b67e74;stroke-width:0.31753px"
       aria-label="L" />
    <path
       d="m 77.032607,27.673617 q 0,0.682193 -0.269776,1.20004 -0.269775,0.51785 -0.772119,0.793827 -0.502342,0.272877 -1.172137,0.272877 -1.029494,0 -1.61556,-0.604671 -0.582968,-0.607775 -0.582968,-1.662073 0,-1.051202 0.582968,-1.640371 0.582966,-0.589169 1.621763,-0.589169 1.038798,0 1.621762,0.595372 0.586067,0.595369 0.586067,1.634168 z m -0.933368,0 q 0,-0.707004 -0.334891,-1.107017 -0.334898,-0.403113 -0.93957,-0.403113 -0.613976,0 -0.948871,0.400011 -0.334895,0.396915 -0.334895,1.110119 0,0.719406 0.341096,1.134924 0.344201,0.412417 0.936467,0.412417 0.613975,0 0.945773,-0.403115 0.334891,-0.403117 0.334891,-1.144226 z"
       id="text9"
       style="font-weight:bold;font-size:20px;line-height:125%;font-family:Sans;-inkscape-font-specification:'Sans Bold';letter-spacing:0px;word-spacing:0px;fill:#b67e74;stroke-width:0.31753px"
       aria-label="O" />
    <path
       d="m 79.69627,26.2162 v 3.662144 H 78.781508 V 26.2162 h -1.410902 v -0.707003 h 3.739666 V 26.2162 Z"
       id="text8"
       style="font-weight:bold;font-size:20px;line-height:125%;font-family:Sans;-inkscape-font-specification:'Sans Bold';letter-spacing:0px;word-spacing:0px;fill:#b67e74;stroke-width:0.31753px"
       aria-label="T" />
    <path
       d="m 30.010772,58.327392 v 3.662146 H 29.09601 V 58.327392 H 27.685107 V 57.62039 h 3.739668 v 0.707002 z"
       id="text15"
       style="font-weight:bold;font-size:20px;line-height:125%;font-family:Sans;-inkscape-font-specification:'Sans Bold';letter-spacing:0px;word-spacing:0px;fill:#b67e74;stroke-width:0.31753px"
       aria-label="T" />
    <path
       d="M 31.917816,61.989538 V 57.62039 h 0.91476 v 4.369148 z"
       id="text14"
       style="font-weight:bold;font-size:20px;line-height:125%;font-family:Sans;-inkscape-font-specification:'Sans Bold';letter-spacing:0px;word-spacing:0px;fill:#b67e74;stroke-width:0.31753px"
       aria-label="I" />
    <path
       d="m 37.310253,61.989538 v -2.648156 q 0,-0.08993 0,-0.179853 0.0031,-0.08992 0.03101,-0.772119 -0.220163,0.834137 -0.325592,1.162831 l -0.787626,2.437297 H 35.57686 L 34.789235,59.552241 34.45744,58.38941 q 0.03722,0.719403 0.03722,0.951972 v 2.648156 H 33.682222 V 57.62039 h 1.224849 l 0.781424,2.443495 0.06822,0.235669 0.148844,0.586069 0.195356,-0.700802 0.80313,-2.564431 h 1.218646 v 4.369148 z"
       id="text13"
       style="font-weight:bold;font-size:20px;line-height:125%;font-family:Sans;-inkscape-font-specification:'Sans Bold';letter-spacing:0px;word-spacing:0px;fill:#b67e74;stroke-width:0.31753px"
       aria-label="M" />
    <path
       d="M 38.972329,61.989538 V 57.62039 h 3.435782 v 0.707002 h -2.52102 v 1.097713 h 2.331865 v 0.706998 h -2.331865 v 1.150431 h 2.648155 v 0.707004 z"
       id="text12"
       style="font-weight:bold;font-size:20px;line-height:125%;font-family:Sans;-inkscape-font-specification:'Sans Bold';letter-spacing:0px;word-spacing:0px;fill:#b67e74;stroke-width:0.31753px"
       aria-label="E" />
    <path
       d="m 69.001313,60.73213 q 0,0.641883 -0.477535,0.982978 -0.474434,0.337999 -1.395399,0.337999 -0.840336,0 -1.317876,-0.297686 -0.477536,-0.297685 -0.613973,-0.902359 l 0.883753,-0.145741 q 0.08992,0.347302 0.350395,0.505443 0.260477,0.155044 0.72251,0.155044 0.958172,0 0.958172,-0.582962 0,-0.186056 -0.111631,-0.306992 -0.108534,-0.120935 -0.310089,-0.201558 -0.198457,-0.08062 -0.765917,-0.195352 -0.489943,-0.114736 -0.682196,-0.182954 -0.192257,-0.07132 -0.347301,-0.164346 -0.155043,-0.09613 -0.263575,-0.229467 -0.108527,-0.133336 -0.17055,-0.313187 -0.05892,-0.179854 -0.05892,-0.412418 0,-0.592271 0.443424,-0.905457 0.446528,-0.316294 1.29617,-0.316294 0.812436,0 1.218648,0.254272 0.409321,0.254272 0.527151,0.840343 l -0.886852,0.120933 q -0.06822,-0.282181 -0.279082,-0.42482 -0.207758,-0.142639 -0.598469,-0.142639 -0.831038,0 -0.831038,0.520944 0,0.170551 0.08683,0.279082 0.08993,0.108533 0.263574,0.186054 0.173648,0.07442 0.7039,0.189151 0.629484,0.133341 0.899259,0.248072 0.272877,0.111631 0.431022,0.263577 0.158143,0.148841 0.241873,0.359702 0.08372,0.207761 0.08372,0.480638 z"
       id="text19"
       style="font-weight:bold;font-size:20px;line-height:125%;font-family:Sans;-inkscape-font-specification:'Sans Bold';letter-spacing:0px;word-spacing:0px;fill:#b67e74;stroke-width:0.31753px"
       aria-label="S" />
    <path
       d="m 71.646372,58.328941 v 3.662151 H 70.73161 v -3.662151 h -1.410904 v -0.707 h 3.739667 v 0.707 z"
       id="text18"
       style="font-weight:bold;font-size:20px;line-height:125%;font-family:Sans;-inkscape-font-specification:'Sans Bold';letter-spacing:0px;word-spacing:0px;fill:#b67e74;stroke-width:0.31753px"
       aria-label="T" />
    <path
       d="m 76.170562,61.991092 -0.38761,-1.116323 h -1.665175 l -0.387609,1.116323 h -0.914765 l 1.593857,-4.369151 h 1.07911 l 1.587652,4.369151 z m -1.221748,-3.696259 -0.0186,0.06822 q -0.03099,0.111633 -0.07442,0.254274 -0.04342,0.142636 -0.533353,1.569046 h 1.255856 l -0.43102,-1.255859 -0.133341,-0.421718 z"
       id="text17"
       style="font-weight:bold;font-size:20px;line-height:125%;font-family:Sans;-inkscape-font-specification:'Sans Bold';letter-spacing:0px;word-spacing:0px;fill:#b67e74;stroke-width:0.31753px"
       aria-label="A" />
    <path
       d="m 79.169117,58.328941 v 3.662151 h -0.914762 v -3.662151 h -1.410902 v -0.707 h 3.739671 v 0.707 z"
       id="text16"
       style="font-weight:bold;font-size:20px;line-height:125%;font-family:Sans;-inkscape-font-specification:'Sans Bold';letter-spacing:0px;word-spacing:0px;fill:#b67e74;stroke-width:0.31753px"
       aria-label="T" />
    <rect
       style="fill:#000000;fill-opacity:1;stroke-width:0.133943"
       id="rect1"
       width="29.459362"
       height="19.052103"
       x="20.380495"
       y="32.265766"
       ry="4.2609868" />
    <rect
       style="fill:#2b2925;fill-opacity:1;stroke-width:0.137462"
       id="rect2"
       width="24.525148"
       height="14.840588"
       x="22.847607"
       y="34.371525"
       ry="2.489572" />
    <path
       d="m 38.686119,38.208433 q -0.707002,1.116318 -1.339581,2.16566 -0.625142,1.049339 -1.093995,2.113563 -0.468853,1.056782 -0.744214,2.180542 -0.267916,1.116318 -0.267916,2.366595 h -2.18054 q 0,-1.309814 0.342336,-2.530321 0.342339,-1.227951 0.989803,-2.49311 0.647464,-1.272606 2.351714,-3.743392 h -5.20949 v -1.719132 h 7.151883 z"
       id="text20"
       style="font-weight:bold;font-size:48px;line-height:125%;font-family:'Arial Narrow';-inkscape-font-specification:'Arial Narrow Bold';letter-spacing:0px;word-spacing:0px;fill:#ffffff;stroke-width:0.31753px"
       aria-label="7" />
    <rect
       style="fill:#000000;fill-opacity:1;stroke-width:0.133943"
       id="rect1-3"
       width="29.459362"
       height="19.052103"
       x="58.160141"
       y="32.265766"
       ry="4.2609868" />
    <rect
       style="fill:#2b2925;fill-opacity:1;stroke-width:0.137462"
       id="rect2-3"
       width="24.525148"
       height="14.840588"
       x="60.627254"
       y="34.371525"
       ry="2.489572" />
    <path
       d="m 76.651822,44.083993 q 0,1.47354 -0.974918,2.292175 -0.974922,0.811189 -2.783356,0.811189 -1.793554,0 -2.783355,-0.811189 -0.982359,-0.811193 -0.982359,-2.277293 0,-1.004684 0.580482,-1.689363 0.580488,-0.692118 1.555407,-0.855843 V 41.5239 q -0.848405,-0.186051 -1.369353,-0.840959 -0.520951,-0.654908 -0.520951,-1.510752 0,-1.28749 0.907942,-2.031698 0.915381,-0.744215 2.582418,-0.744215 1.704245,0 2.612183,0.729329 0.915384,0.721886 0.915384,2.061468 0,0.855844 -0.52095,1.50331 -0.513507,0.647466 -1.384234,0.818631 v 0.02977 q 1.012129,0.16373 1.585171,0.83352 0.580489,0.662352 0.580489,1.711691 z m -2.411249,-4.785289 q 0,-0.74421 -0.342341,-1.086549 -0.342335,-0.349782 -1.034453,-0.349782 -1.354466,0 -1.354466,1.436331 0,1.503308 1.36935,1.503308 0.684677,0 1.019569,-0.349777 0.342341,-0.349779 0.342341,-1.153531 z m 0.245589,4.61412 q 0,-1.644709 -1.637268,-1.644709 -0.759099,0 -1.168411,0.43164 -0.40188,0.431644 -0.40188,1.242837 0,0.922822 0.40188,1.347024 0.40187,0.4242 1.227948,0.4242 0.811192,0 1.19074,-0.4242 0.386991,-0.424202 0.386991,-1.376792 z"
       id="text21"
       style="font-weight:bold;font-size:48px;line-height:125%;font-family:'Arial Narrow';-inkscape-font-specification:'Arial Narrow Bold';letter-spacing:0px;word-spacing:0px;fill:#ffffff;stroke-width:0.31753px"
       aria-label="8" />
    <rect
       style="fill:#000000;fill-opacity:1;stroke-width:0.133943"
       id="rect1-0"
       width="29.459362"
       height="19.052103"
       x="20.380495"
       y="64.433739"
       ry="4.2609868" />
    <rect
       style="fill:#2b2925;fill-opacity:1;stroke-width:0.137462"
       id="rect2-0"
       width="24.525148"
       height="14.840588"
       x="22.847607"
       y="66.53949"
       ry="2.489572" />
    <path
       d="m 37.793062,77.066874 v 2.135887 h -1.994488 v -2.135887 h -4.770402 v -1.570289 l 4.428063,-6.779777 h 2.336827 v 6.794657 h 1.39912 v 1.555409 z m -1.994488,-4.986223 q 0,-0.401878 0.02232,-0.870732 0.02977,-0.468852 0.04465,-0.602814 -0.193495,0.41676 -0.699559,1.205627 l -2.433576,3.698733 h 3.066156 z"
       id="text22"
       style="font-weight:bold;font-size:48px;line-height:125%;font-family:'Arial Narrow';-inkscape-font-specification:'Arial Narrow Bold';letter-spacing:0px;word-spacing:0px;fill:#ffffff;stroke-width:0.31753px"
       aria-label="4" />
    <rect
       style="fill:#000000;fill-opacity:1;stroke-width:0.133943"
       id="rect1-6"
       width="29.459362"
       height="19.052103"
       x="58.160141"
       y="64.433739"
       ry="4.2609868" />
    <rect
       style="fill:#2b2925;fill-opacity:1;stroke-width:0.137462"
       id="rect2-9"
       width="24.525148"
       height="14.840588"
       x="60.627254"
       y="66.53949"
       ry="2.489572" />
    <path
       d="m 76.681588,75.637987 q 0,1.667033 -1.041898,2.656836 -1.034454,0.98236 -2.842893,0.98236 -1.57773,0 -2.530321,-0.707 -0.94515,-0.714446 -1.168412,-2.061468 l 2.091234,-0.17117 q 0.163729,0.669788 0.580489,0.974919 0.416758,0.305127 1.04934,0.305127 0.781421,0 1.242833,-0.498627 0.468854,-0.498618 0.468854,-1.436327 0,-0.826077 -0.439084,-1.317256 -0.439087,-0.498622 -1.227951,-0.498622 -0.87073,0 -1.421445,0.677232 h -2.039145 l 0.364663,-5.901603 h 6.303481 v 1.555404 h -4.405738 l -0.17117,2.649396 q 0.7591,-0.669793 1.897744,-0.669793 1.495865,0 2.388922,0.930265 0.900497,0.930268 0.900497,2.530327 z"
       id="text23"
       style="font-weight:bold;font-size:48px;line-height:125%;font-family:'Arial Narrow';-inkscape-font-specification:'Arial Narrow Bold';letter-spacing:0px;word-spacing:0px;fill:#ffffff;stroke-width:0.31753px"
       aria-label="5" />
  </g>
</svg>
