<?xml version="1.0" encoding="UTF-8" standalone="no"?>
<svg
   width="512"
   height="512"
   viewBox="0 0 135.46666 135.46666"
   version="1.1"
   id="svg5"
   inkscape:version="1.2.2 (b0a8486541, 2022-12-01)"
   sodipodi:docname="icon_48sx_v26_monochrome.svg"
   inkscape:export-filename="/tank/data/czo/AndroidStudioProjects/droid48sx/store/img/icon_48sx.png"
   inkscape:export-xdpi="96.000008"
   inkscape:export-ydpi="96.000008"
   xmlns:inkscape="http://www.inkscape.org/namespaces/inkscape"
   xmlns:sodipodi="http://sodipodi.sourceforge.net/DTD/sodipodi-0.dtd"
   xmlns="http://www.w3.org/2000/svg"
   xmlns:svg="http://www.w3.org/2000/svg"
   xmlns:rdf="http://www.w3.org/1999/02/22-rdf-syntax-ns#"
   xmlns:cc="http://creativecommons.org/ns#"
   xmlns:dc="http://purl.org/dc/elements/1.1/">
  <metadata
     id="metadata11">
    <rdf:RDF>
      <cc:Work
         rdf:about="">
        <dc:format>image/svg+xml</dc:format>
        <dc:type
           rdf:resource="http://purl.org/dc/dcmitype/StillImage" />
        <dc:title />
      </cc:Work>
    </rdf:RDF>
  </metadata>
  <sodipodi:namedview
     id="namedview7"
     pagecolor="#ffffff"
     bordercolor="#666666"
     borderopacity="1.0"
     inkscape:pageshadow="2"
     inkscape:pageopacity="0.0"
     inkscape:pagecheckerboard="0"
     inkscape:document-units="mm"
     showgrid="false"
     inkscape:zoom="1.1627039"
     inkscape:cx="266.18987"
     inkscape:cy="258.44929"
     inkscape:window-width="1440"
     inkscape:window-height="831"
     inkscape:window-x="0"
     inkscape:window-y="0"
     inkscape:window-maximized="1"
     inkscape:current-layer="layer1"
     units="px"
     height="512px"
     inkscape:document-rotation="0"
     showguides="true"
     inkscape:guide-bbox="true"
     inkscape:showpageshadow="2"
     inkscape:deskcolor="#d1d1d1" />
  <defs
     id="defs2">
    <linearGradient
       id="linearGradient3031"
       inkscape:swatch="solid">
      <stop
         style="stop-color:#f9b27e;stop-opacity:1;"
         offset="0"
         id="stop3029" />
    </linearGradient>
    <linearGradient
       id="linearGradient2984"
       inkscape:swatch="solid">
      <stop
         style="stop-color:#f9b27e;stop-opacity:1;"
         offset="0"
         id="stop2982" />
    </linearGradient>
    <linearGradient
       id="linearGradient921"
       inkscape:swatch="solid">
      <stop
         style="stop-color:#000000;stop-opacity:1;"
         offset="0"
         id="stop919" />
    </linearGradient>
  </defs>
  <g
     inkscape:label="Layer 1"
     inkscape:groupmode="layer"
     id="layer1">
    <path
       id="rect48"
       style="stroke:#000000;stroke-width:3.208;stroke-linecap:round;stroke-miterlimit:4;stroke-dasharray:none;stroke-opacity:1;paint-order:fill markers stroke;fill:none"
       d="m 33.213691,53.064804 h 69.039289 c 4.63829,0 8.37236,3.734075 8.37236,8.372365 v 32.662745 c 0,4.638287 -3.73407,8.372366 -8.37236,8.372366 H 33.213691 c -4.63829,0 -8.372365,-3.734079 -8.372365,-8.372366 V 61.437169 c 0,-4.63829 3.734075,-8.372365 8.372365,-8.372365 z" />
    <rect
       style="fill:none;stroke:#000000;stroke-width:0.39;stroke-linecap:round;stroke-miterlimit:4;stroke-dasharray:none;paint-order:fill markers stroke"
       id="rect525931"
       width="89.32267"
       height="19.941284"
       x="23.072001"
       y="25.31365"
       ry="4.0053144" />
    <g
       id="g885"
       style="fill:#000000">
      <path
         d="m 62.758865,96.288578 q 0.256208,-3.020953 1.067527,-6.290203 0.811319,-3.269251 1.964258,-6.414352 1.195632,-3.145099 2.647497,-5.917754 1.451841,-2.814039 2.946374,-4.841802 H 58.531423 v -5.255629 h 20.710154 v 4.469355 q -1.366429,1.448401 -3.031785,4.014142 -1.622663,2.565739 -3.117197,5.834989 -1.451865,3.227869 -2.562086,6.95233 -1.067527,3.724462 -1.323736,7.448924 z"
         style="font-style:normal;font-variant:normal;font-weight:bold;font-stretch:normal;font-size:16.9333px;line-height:0;font-family:Ubuntu;-inkscape-font-specification:'Ubuntu Bold';white-space:pre;inline-size:11.8101;fill:#000000;stroke-width:0.656828"
         id="path961" />
    </g>
    <g
       aria-label="SOLVE "
       id="text899"
       style="font-size:16.4764px;line-height:0;font-family:Ubuntu;-inkscape-font-specification:Ubuntu;fill:#000000;stroke:none;stroke-width:1.54466"
       transform="matrix(1.0875783,0,0,1.2750123,-7.363069,-12.709678)">
      <path
         d="m 47.283913,41.29405 q 0.543721,0 0.889725,-0.08238 0.362481,-0.09886 0.576674,-0.247146 0.214193,-0.164764 0.296575,-0.378957 0.08238,-0.214193 0.08238,-0.477816 0,-0.560197 -0.527244,-0.922678 -0.527245,-0.378957 -1.812404,-0.807344 -0.560198,-0.197717 -1.120396,-0.444863 -0.560197,-0.263622 -1.00506,-0.642579 -0.444863,-0.395434 -0.724962,-0.939155 -0.280099,-0.560198 -0.280099,-1.351065 0,-0.790867 0.296576,-1.41697 0.296575,-0.64258 0.840296,-1.087443 0.543721,-0.444863 1.318112,-0.675532 0.774391,-0.247146 1.746499,-0.247146 1.153348,0 1.993644,0.247146 0.840296,0.247146 1.384018,0.543721 l -0.741438,2.026597 q -0.477816,-0.247146 -1.070966,-0.428386 -0.576674,-0.197717 -1.400494,-0.197717 -0.922679,0 -1.334589,0.263622 -0.395433,0.247146 -0.395433,0.774391 0,0.313052 0.148287,0.527245 0.148288,0.214193 0.41191,0.395434 0.280099,0.164764 0.626103,0.313051 0.362481,0.131812 0.790868,0.280099 0.889725,0.329528 1.548781,0.659056 0.659056,0.313052 1.087443,0.741438 0.444862,0.428387 0.659056,1.005061 0.214193,0.576674 0.214193,1.400494 0,1.59821 -1.120395,2.487936 -1.120396,0.873249 -3.377662,0.873249 -0.757915,0 -1.367542,-0.09886 -0.609626,-0.08238 -1.087442,-0.214193 -0.461339,-0.131812 -0.807344,-0.280099 -0.329528,-0.148288 -0.560197,-0.280099 l 0.724961,-2.043074 q 0.510769,0.280099 1.252207,0.510769 0.757914,0.214193 1.845357,0.214193 z"
         style="font-style:normal;font-variant:normal;font-weight:bold;font-stretch:normal;font-family:Ubuntu;-inkscape-font-specification:'Ubuntu Bold';fill:#000000;stroke:none;stroke-width:1.54466"
         id="path964" />
      <path
         d="m 55.917527,37.537431 q 0,0.840296 0.197717,1.515829 0.214193,0.675532 0.59315,1.169824 0.395434,0.477816 0.955632,0.741438 0.560197,0.263622 1.285159,0.263622 0.708485,0 1.268683,-0.263622 0.576674,-0.263622 0.955631,-0.741438 0.395433,-0.494292 0.59315,-1.169824 0.214193,-0.675533 0.214193,-1.515829 0,-0.840297 -0.214193,-1.515829 -0.197717,-0.692009 -0.59315,-1.169825 -0.378957,-0.494292 -0.955631,-0.757914 -0.560198,-0.263622 -1.268683,-0.263622 -0.724962,0 -1.285159,0.280098 -0.560198,0.263623 -0.955632,0.757915 -0.378957,0.477815 -0.59315,1.169824 -0.197717,0.675533 -0.197717,1.499353 z m 8.716016,0 q 0,1.466399 -0.444863,2.586795 -0.428386,1.103918 -1.186301,1.861833 -0.757914,0.741438 -1.812404,1.120395 -1.038013,0.378957 -2.24079,0.378957 -1.169825,0 -2.207838,-0.378957 -1.038013,-0.378957 -1.812404,-1.120395 -0.774391,-0.757915 -1.219254,-1.861833 -0.444862,-1.120396 -0.444862,-2.586795 0,-1.4664 0.461339,-2.570319 0.461339,-1.120395 1.23573,-1.878309 0.790867,-0.757915 1.812404,-1.136872 1.038013,-0.378957 2.174885,-0.378957 1.169824,0 2.207837,0.378957 1.038014,0.378957 1.812405,1.136872 0.77439,0.757914 1.219253,1.878309 0.444863,1.103919 0.444863,2.570319 z"
         style="font-style:normal;font-variant:normal;font-weight:bold;font-stretch:normal;font-family:Ubuntu;-inkscape-font-specification:'Ubuntu Bold';fill:#000000;stroke:none;stroke-width:1.54466"
         id="path966" />
      <path
         d="m 74.404033,41.046904 v 2.207838 H 66.77546 V 31.836596 h 2.570318 v 9.210308 z"
         style="font-style:normal;font-variant:normal;font-weight:bold;font-stretch:normal;font-family:Ubuntu;-inkscape-font-specification:'Ubuntu Bold';fill:#000000;stroke:none;stroke-width:1.54466"
         id="path968" />
      <path
         d="m 78.045296,43.254742 q -0.675532,-1.433447 -1.334588,-2.982229 -0.659056,-1.548781 -1.252206,-3.06461 -0.593151,-1.515829 -1.103919,-2.899847 -0.494292,-1.384017 -0.856773,-2.47146 h 2.833941 q 0.329528,0.988584 0.708485,2.141932 0.395434,1.136872 0.790867,2.273744 0.41191,1.136871 0.790867,2.174884 0.378958,1.038014 0.708486,1.795928 0.313051,-0.757914 0.692009,-1.795928 0.395433,-1.038013 0.790867,-2.174884 0.41191,-1.136872 0.790867,-2.273744 0.395434,-1.153348 0.724962,-2.141932 h 2.735082 q -0.378957,1.087443 -0.873249,2.47146 -0.494292,1.384018 -1.087443,2.899847 -0.59315,1.515829 -1.252206,3.06461 -0.659056,1.548782 -1.334588,2.982229 z"
         style="font-style:normal;font-variant:normal;font-weight:bold;font-stretch:normal;font-family:Ubuntu;-inkscape-font-specification:'Ubuntu Bold';fill:#000000;stroke:none;stroke-width:1.54466"
         id="path970" />
      <path
         d="M 86.547089,43.254742 V 31.836596 h 7.710956 v 2.158409 h -5.140637 v 2.24079 h 4.563963 v 2.108979 h -4.563963 v 2.751559 h 5.519594 v 2.158409 z"
         style="font-style:normal;font-variant:normal;font-weight:bold;font-stretch:normal;font-family:Ubuntu;-inkscape-font-specification:'Ubuntu Bold';fill:#000000;stroke:none;stroke-width:1.54466"
         id="path972" />
    </g>
  </g>
</svg>
